<svg width="163" height="83" viewBox="0 0 163 83" fill="none" xmlns="http://www.w3.org/2000/svg">
<path fill-rule="evenodd" clip-rule="evenodd" d="M56.2344 12.1654C56.1448 11.4748 56.7515 10.9051 57.42 11.052L66.3439 13.012C67.6756 12.5406 69.1084 12.2295 70.6116 12.1096C72.4622 11.962 74.2575 12.117 75.9314 12.527L85.5182 10.3784C86.1815 10.2297 86.7969 10.793 86.724 11.482L85.7154 21.0153C85.9478 21.753 86.1027 22.5211 86.1716 23.3136C86.7656 30.1396 80.7622 36.1904 72.7626 36.8285C64.7631 37.4666 57.7966 32.4504 57.2026 25.6245C57.0942 24.3787 57.2056 23.1587 57.5087 21.9928L56.2344 12.1654Z" fill="#ECCADA"/>
<path d="M63.3701 21.9069L69.4679 23.0548" stroke="#E5E5E5"/>
<path d="M75.4121 22.6771L81.4486 21.3567" stroke="#E5E5E5"/>
<path d="M67.5548 28.2415C68.8354 31.9158 72.0933 30.6468 72.6233 28.0469C73.9039 31.7212 77.1618 30.4522 77.6918 27.8524" stroke="#E5E5E5"/>
<path d="M43.848 73.552C43.992 73.984 44.064 74.272 44.064 74.416C44.064 75.184 43.752 75.76 43.128 76.144C42.552 76.528 41.832 76.72 40.968 76.72C40.344 76.72 39.792 76.576 39.312 76.288C38.832 76 38.52 75.616 38.376 75.136L35.064 63.976L14.544 63.832L11.016 74.848C10.632 76.048 9.744 76.648 8.352 76.648C7.536 76.648 6.816 76.432 6.192 76C5.616 75.568 5.328 75.016 5.328 74.344C5.328 74.248 5.376 73.96 5.472 73.48C10.32 59.272 14.424 46.912 17.784 36.4C18.552 34.096 18.936 32.944 18.936 32.944C19.896 30.016 20.856 27.928 21.816 26.68C22.776 25.432 23.952 24.808 25.344 24.808C26.688 24.808 27.792 25.36 28.656 26.464C29.52 27.568 30.384 29.488 31.248 32.224C33.072 37.888 35.352 45.232 38.088 54.256L39.312 58.36H41.328C42.096 58.36 42.72 58.624 43.2 59.152C43.728 59.68 43.992 60.352 43.992 61.168C43.992 63.04 43.248 63.976 41.76 63.976H40.968C42.072 67.768 43.032 70.96 43.848 73.552ZM33.48 58.288L31.32 50.872C29.64 45.064 28.344 40.624 27.432 37.552C26.856 35.632 26.4 34.24 26.064 33.376C25.728 32.512 25.416 32.08 25.128 32.08C24.888 32.08 24.624 32.464 24.336 33.232C24.048 33.952 23.568 35.368 22.896 37.48L19.368 48.568L16.416 58.072L33.48 58.288ZM72.7476 39.352C80.8596 39.352 84.9156 45.088 84.9156 56.56V73.408C84.9156 75.088 84.0276 75.928 82.2516 75.928C80.3316 75.928 79.3716 75.112 79.3716 73.48V56.488C79.3716 52.264 78.8916 49.168 77.9316 47.2C76.9716 45.184 75.2436 44.176 72.7476 44.176C70.1076 44.176 67.9476 45.184 66.2676 47.2C64.5876 49.216 63.4116 51.856 62.7396 55.12C62.3076 57.328 62.0916 60.04 62.0916 63.256L62.1636 73.912C62.1636 74.584 61.9236 75.112 61.4436 75.496C60.9636 75.832 60.3156 76 59.4996 76C58.5876 76 57.8916 75.808 57.4116 75.424C56.9316 75.04 56.6916 74.536 56.6916 73.912C56.6916 69.64 56.5956 64.432 56.4036 58.288C56.2596 54.736 56.1876 51.592 56.1876 48.856C56.1876 47.656 56.0436 46.72 55.7556 46.048C55.5156 45.328 55.0116 44.344 54.2436 43.096C54.0516 42.808 53.9556 42.472 53.9556 42.088C53.9556 41.512 54.2676 40.984 54.8916 40.504C55.5636 39.976 56.2116 39.712 56.8356 39.712C57.4596 39.712 58.1076 40.168 58.7796 41.08C59.3076 41.848 59.7876 42.784 60.2196 43.888C60.6996 44.944 60.9396 45.952 60.9396 46.912V47.704C61.8036 45.304 63.1956 43.312 65.1156 41.728C67.0356 40.144 69.5796 39.352 72.7476 39.352ZM112.615 39.352C120.727 39.352 124.783 45.088 124.783 56.56V73.408C124.783 75.088 123.895 75.928 122.119 75.928C120.199 75.928 119.239 75.112 119.239 73.48V56.488C119.239 52.264 118.759 49.168 117.799 47.2C116.839 45.184 115.111 44.176 112.615 44.176C109.975 44.176 107.815 45.184 106.135 47.2C104.455 49.216 103.279 51.856 102.607 55.12C102.175 57.328 101.959 60.04 101.959 63.256L102.031 73.912C102.031 74.584 101.791 75.112 101.311 75.496C100.831 75.832 100.183 76 99.3668 76C98.4548 76 97.7588 75.808 97.2788 75.424C96.7988 75.04 96.5588 74.536 96.5588 73.912C96.5588 69.64 96.4628 64.432 96.2708 58.288C96.1268 54.736 96.0548 51.592 96.0548 48.856C96.0548 47.656 95.9108 46.72 95.6228 46.048C95.3828 45.328 94.8788 44.344 94.1108 43.096C93.9188 42.808 93.8228 42.472 93.8228 42.088C93.8228 41.512 94.1348 40.984 94.7588 40.504C95.4308 39.976 96.0788 39.712 96.7028 39.712C97.3268 39.712 97.9748 40.168 98.6468 41.08C99.1748 41.848 99.6548 42.784 100.087 43.888C100.567 44.944 100.807 45.952 100.807 46.912V47.704C101.671 45.304 103.063 43.312 104.983 41.728C106.903 40.144 109.447 39.352 112.615 39.352Z" fill="#ECCADA"/>
</svg>
